HIERARCHY
ROOT Hips
{
	OFFSET 0.00000 0.00000 0.00000
	CHANNELS 6 Xposition Yposition Zposition Zrotation Yrotation Xrotation 
	JOINT LHipJoint
	{
		OFFSET 0 0 0
		CHANNELS 3 Zrotation Yrotation Xrotation
		JOINT LeftHip
		{
			OFFSET 1.60223 -1.58443 0.78595
			CHANNELS 3 Zrotation Yrotation Xrotation
			JOINT LeftKnee
			{
				OFFSET 2.21690 -6.09089 0.00000
				CHANNELS 3 Zrotation Yrotation Xrotation
				JOINT LeftAnkle
				{
					OFFSET 2.34805 -6.45122 0.00000
					CHANNELS 3 Zrotation Yrotation Xrotation
					JOINT LeftToe
					{
						OFFSET 0.35452 -0.97402 1.38549
						CHANNELS 3 Zrotation Yrotation Xrotation
						End Site
						{
							OFFSET 0.00000 -0.00000 0.82816
						}
					}
				}
			}
		}
	}
	JOINT RHipJoint
	{
		OFFSET 0 0 0
		CHANNELS 3 Zrotation Yrotation Xrotation
		JOINT RightHip
		{
			OFFSET -1.56524 -1.58443 0.78595
			CHANNELS 3 Zrotation Yrotation Xrotation
			JOINT RightKnee
			{
				OFFSET -2.15558 -5.92241 0.00000
				CHANNELS 3 Zrotation Yrotation Xrotation
				JOINT RightAnkle
				{
					OFFSET -2.35077 -6.45870 0.00000
					CHANNELS 3 Zrotation Yrotation Xrotation
					JOINT RightToe
					{
						OFFSET -0.26910 -0.73935 1.33295
						CHANNELS 3 Zrotation Yrotation Xrotation
						End Site
						{
							OFFSET -0.00000 -0.00000 0.75962
						}
					}
				}
			}
		}
	}
	JOINT lowerback
	{
		OFFSET 0 0 0
		CHANNELS 3 Zrotation Yrotation Xrotation
		JOINT Chest
		{
			OFFSET -0.05489 1.97104 -0.02993
			CHANNELS 3 Zrotation Yrotation Xrotation
			JOINT Chest2
			{
				OFFSET -0.00702 1.94230 0.13626
				CHANNELS 3 Zrotation Yrotation Xrotation
				JOINT lowerneck
				{
					OFFSET 0 0 0
					CHANNELS 3 Zrotation Yrotation Xrotation
					JOINT Neck
					{
						OFFSET -0.07858 1.62869 -0.02510
						CHANNELS 3 Zrotation Yrotation Xrotation
						JOINT Head
						{
							OFFSET 0.13978 1.59213 -0.29859
							CHANNELS 3 Zrotation Yrotation Xrotation
							End Site
							{
								OFFSET 0.05353 1.64420 -0.10000
							}
						}
					}
				}
				JOINT LeftCollar
				{
					OFFSET 0 0 0
					CHANNELS 3 Zrotation Yrotation Xrotation
					JOINT LeftShoulder
					{
						OFFSET 3.48263 1.15278 0.52941
CHANNELS 3 Zrotation Xrotation Yrotation
						JOINT LeftElbow
						{
OFFSET 0 -4.592070 -0.000000
CHANNELS 3 Zrotation Xrotation Yrotation
							JOINT LeftWrist
							{
OFFSET 0 -2.981090 -0.000000
CHANNELS 3 Zrotation Xrotation Yrotation
								JOINT lhand
								{
									OFFSET 0 0 0
CHANNELS 3 Zrotation Xrotation Yrotation
									JOINT LFingers
									{
OFFSET 0 -0.480200 -0.000000
CHANNELS 3 Zrotation Xrotation Yrotation
										End Site
										{
OFFSET 0 -0.387150 -0.000000
										}
									}
								}
								JOINT LThumb
								{
OFFSET 0 0.000000 0.000000
CHANNELS 3 Zrotation Xrotation Yrotation
									End Site
									{
OFFSET 0 -0.393060 0.393060
									}
								}
							}
						}
					}
				}
				JOINT RightCollar
				{
					OFFSET 0 0 0
					CHANNELS 3 Zrotation Yrotation Xrotation
					JOINT RightShoulder
					{
						OFFSET -3.52496 1.12722 0.24548
CHANNELS 3 Zrotation Xrotation Yrotation
						JOINT RightElbow
						{
OFFSET 0 -4.765080 -0.000000
CHANNELS 3 Zrotation Xrotation Yrotation
							JOINT RightWrist
							{
OFFSET 0 -2.789020 -0.000000
CHANNELS 3 Zrotation Xrotation Yrotation
								JOINT rhand
								{
									OFFSET 0 0 0
CHANNELS 3 Zrotation Xrotation Yrotation
									JOINT RFingers
									{
OFFSET 0 -0.721300 -0.000000
CHANNELS 3 Zrotation Xrotation Yrotation
										End Site
										{
OFFSET 0 -0.581530 -0.000000
										}
									}
								}
								JOINT RThumb
								{
OFFSET 0 0.000000 0.000000
CHANNELS 3 Zrotation Xrotation Yrotation
									End Site
									{
OFFSET 0 -0.590410 0.590410
									}
								}
							}
						}
					}
				}
			}
		}
	}
}
MOTION
Frames: 6
Frame Time: 0.008333333333333333
5.299136 15.680165 -1.041935 -2.960257 -103.661878 -347.217242 0.000000 0.000000 0.000000 -8.633123 -14.208239 -30.248758 14.670605 19.304938 74.242570 -0.114571 6.257066 -3.939809 1.223062 -6.992352 -19.701562 0.000000 0.000000 0.000000 36.506373 -0.019480 -22.680516 -2.688316 -10.172412 29.536940 -0.254461 10.293119 -10.834299 -1.611336 -8.001655 22.720775 -6.160672 -2.592091 1.112529 -1.514845 -4.339313 -8.307544 2.224575 -1.880218 -9.110293 -18.222553 -19.112257 16.715102 25.978527 -32.071326 3.363954 9.125393 -17.222599 5.674943 0.000000 0.000000 0.000000 3.630202 25.035353 -44.214576 137.065691 -49.715390 99.349339 22.525789 27.360330 -28.456244 0.000000 0.000000 0.000000 -7.125000 0.000000 0.000000 -9.458074 60.132944 3.510241 0.000000 0.000000 0.000000 -49.051438 -49.695181 -25.504259 -101.107890 -59.528272 -69.604439 -5.403304 -13.787853 -23.675183 0.000000 0.000000 0.000000 7.125000 0.000000 0.000000 14.682761 6.838832 13.279843
4.589595 15.726368 -0.925861 5.261992 -130.995067 -352.437820 0.000000 0.000000 0.000000 -3.195749 -22.100165 -35.162111 14.236486 19.183732 72.925130 0.240861 5.938064 -13.342600 0.510453 -4.574963 -12.700974 0.000000 0.000000 0.000000 36.489128 7.713220 -15.276047 -2.591840 -10.003014 28.986563 1.153405 19.330004 1.604114 -2.359947 -9.576779 27.618366 -5.133908 -2.453544 1.351932 0.742251 -3.970602 -8.152899 4.030190 -1.701643 -8.996512 -18.430018 -17.805876 16.323415 26.732391 -31.319239 3.964618 9.489411 -16.998388 5.903578 0.000000 0.000000 0.000000 4.411414 27.727791 -47.827006 136.996894 -49.751748 99.296895 24.877172 27.304133 -27.677643 0.000000 0.000000 0.000000 -7.125000 0.000000 0.000000 -6.395581 59.901417 2.330202 0.000000 0.000000 0.000000 -59.991645 -56.759394 -29.754927 -103.041360 -59.347398 -71.269349 -2.211494 -28.244288 -17.011965 0.000000 0.000000 0.000000 7.125000 0.000000 0.000000 16.898683 13.459503 13.093889
3.591727 15.918475 -0.797209 6.894911 -160.670628 -351.069937 0.000000 0.000000 0.000000 3.591435 -34.533060 -35.003937 11.990005 18.384205 65.954761 0.546530 -2.275587 -13.398817 1.072335 -6.582305 -18.483849 0.000000 0.000000 0.000000 32.052769 11.302591 -12.141418 -2.721063 -10.229221 29.722260 2.127225 26.750998 21.338744 -2.925800 -10.573419 30.854802 -2.670576 -1.193100 2.646879 1.700866 -2.097974 -7.573208 3.553901 -0.932227 -9.337241 -16.566828 -15.632444 12.523730 23.588537 -27.887780 6.614234 8.481724 -15.041965 5.686743 0.000000 0.000000 0.000000 4.959524 27.972393 -51.309909 135.771364 -50.384842 98.357118 21.351201 26.516897 -28.138441 0.000000 0.000000 0.000000 -7.125000 0.000000 0.000000 -10.585698 59.532666 3.782949 0.000000 0.000000 0.000000 -74.408860 -58.038979 -37.189148 -100.563660 -59.573810 -69.135228 -1.227921 -40.838966 -10.827480 0.000000 0.000000 0.000000 7.125000 0.000000 0.000000 18.065637 19.390891 11.629733
2.401206 16.393786 -1.067723 7.400236 -194.272299 -349.919740 0.000000 0.000000 0.000000 3.353856 -42.117333 -24.635850 8.623206 16.549264 54.762677 -0.168627 -11.728889 -5.457518 0.846386 -5.833639 -16.312219 0.000000 0.000000 0.000000 24.768324 14.559393 -9.516265 -2.563533 -9.952165 28.822233 -0.131245 24.908814 35.781282 -2.491971 -9.814090 28.384596 -1.768109 0.603144 3.987786 0.859978 0.961798 -5.975467 1.775276 0.714483 -8.566148 -13.701414 -15.138098 8.394298 20.994674 -21.996195 10.011955 7.741019 -10.520235 5.564528 0.000000 0.000000 0.000000 7.193922 28.449073 -53.745147 137.062385 -49.716370 99.346662 21.853602 25.368829 -27.838164 0.000000 0.000000 0.000000 -7.125000 0.000000 0.000000 -9.864074 59.347205 3.477836 0.000000 0.000000 0.000000 -81.442048 -58.143319 -38.481334 -95.121712 -59.899111 -64.433911 -1.798543 -48.201798 -9.626151 0.000000 0.000000 0.000000 7.125000 0.000000 0.000000 17.805593 20.525271 10.966210
1.244967 16.819248 -1.687389 4.232989 -228.678633 -350.347018 0.000000 0.000000 0.000000 -7.586959 -38.121632 -13.438909 5.701929 14.129470 43.766259 -0.713223 -14.995683 8.400861 1.420945 -7.508273 -21.244798 0.000000 0.000000 0.000000 13.680184 24.394013 -8.799917 -2.590657 -9.999697 28.976814 -0.607381 17.131027 29.024379 -0.870798 -5.815896 16.287340 -3.959960 2.760404 3.973487 -1.612351 3.428228 -4.975483 0.151568 1.906615 -7.576949 -9.611996 -10.044829 3.171954 18.786984 -14.894778 13.110718 6.818464 -6.619943 5.539756 0.000000 0.000000 0.000000 11.399855 28.662288 -56.488932 139.169107 -48.554524 100.940222 24.599473 24.872915 -27.921987 0.000000 0.000000 0.000000 -7.125000 0.000000 0.000000 -6.833740 60.086738 2.522438 0.000000 0.000000 0.000000 -87.167593 -58.323070 -38.279711 -86.481299 -59.946343 -56.953380 0.305200 -45.593781 -10.159591 0.000000 0.000000 0.000000 7.125000 0.000000 0.000000 19.178693 20.044289 12.134923
0.202129 16.699790 -2.537711 -0.007217 -259.286659 -352.529179 0.000000 0.000000 0.000000 -17.645376 -26.660944 -11.643364 5.268684 13.679944 41.970537 -0.107981 -6.075905 0.158632 2.652024 -10.109199 -29.331270 0.000000 0.000000 0.000000 6.391245 14.439057 -21.482013 -3.518441 -11.489990 33.951427 -0.032394 0.639389 3.772965 -0.654876 5.172369 -14.401655 -4.144885 3.963568 2.759812 -3.178816 5.012177 -5.129151 -1.466883 2.655626 -6.974835 -6.865888 -5.005224 1.080434 17.454894 -8.105466 14.934685 6.354159 -3.127848 5.225567 0.000000 0.000000 0.000000 15.001307 26.972445 -60.001959 140.464987 -47.791977 101.905913 24.842008 24.572975 -27.377200 0.000000 0.000000 0.000000 -7.125000 0.000000 0.000000 -6.291550 59.581041 2.245155 0.000000 0.000000 0.000000 -95.278027 -59.071276 -39.956820 -80.642833 -59.666448 -51.905561 1.829580 -43.701491 -17.729887 0.000000 0.000000 0.000000 7.125000 0.000000 0.000000 19.406653 12.926016 15.512460
